<?xml version="1.0" encoding="UTF-8" standalone="no"?>
<!-- Created with Inkscape (http://www.inkscape.org/) -->

<svg
   width="210mm"
   height="297mm"
   viewBox="0 0 210 297"
   version="1.1"
   id="svg5"
   xml:space="preserve"
   xmlns="http://www.w3.org/2000/svg"
   xmlns:svg="http://www.w3.org/2000/svg"><g
     id="layer3"
     style="fill:none"><path
       style="opacity:0.653;fill:none;stroke:#000000;stroke-width:0.264583;stroke-opacity:1"
       d="m 158.55107,88.327068 0.0995,73.904292 -38.46722,21.815 0.16727,-73.38033 c 14.18523,-8.35162 24.90501,-14.580505 37.60368,-21.941093 z"
       id="path3953" /><path
       style="display:inline;opacity:0.653;fill:none;stroke:#000000;stroke-width:0.264583;stroke-opacity:1"
       d="m 93.549106,141.29347 -0.124335,8.9272"
       id="path4551" /><path
       style="display:inline;opacity:0.653;fill:none;stroke:#000000;stroke-width:0.264583;stroke-opacity:1"
       d="m 106.35553,120.28097 -0.12433,13.10484"
       id="path4553" /><path
       style="display:inline;opacity:0.653;fill:none;stroke:#000000;stroke-width:0.264583;stroke-opacity:1"
       d="m 106.97721,120.60424 -0.17407,13.15457"
       id="path4555" /><path
       style="display:inline;opacity:0.653;fill:none;stroke:#000000;stroke-width:0.264583;stroke-opacity:1"
       d="m 106.25607,134.57942 0.0497,12.93076"
       id="path4557" /><path
       style="display:inline;opacity:0.653;fill:none;stroke:#000000;stroke-width:0.264583;stroke-opacity:1"
       d="m 106.85287,134.80322 0.0497,13.1297"
       id="path4559" /><path
       style="display:inline;opacity:0.653;fill:none;stroke:#000000;stroke-width:0.264583;stroke-opacity:1"
       d="m 106.3058,148.57945 -0.0249,9.00181"
       id="path4561" /><path
       style="display:inline;opacity:0.653;fill:none;stroke:#000000;stroke-width:0.264583;stroke-opacity:1"
       d="m 106.90261,148.95246 -0.0249,8.95206"
       id="path4563" /><path
       style="display:inline;opacity:0.653;fill:none;stroke:#000000;stroke-width:0.264583;stroke-opacity:1"
       d="m 131.19752,136.02169 0.0497,13.22917"
       id="path4476" /><path
       style="display:inline;opacity:0.653;fill:none;stroke:#000000;stroke-width:0.264583;stroke-opacity:1"
       d="m 131.84406,135.69842 0.008,0.94507 0.0915,12.30897"
       id="path4478"/><path
       style="display:inline;opacity:0.653;fill:none;stroke:#000000;stroke-width:0.264583;stroke-opacity:1"
       d="m 131.3489,150.26877 -0.0703,13.22281"
       id="path4480" /><path
       style="display:inline;opacity:0.653;fill:none;stroke:#000000;stroke-width:0.264583;stroke-opacity:1"
       d="m 131.94674,149.84677 -0.0703,13.32831"
       id="path4482" /><path
       style="display:inline;opacity:0.653;fill:none;stroke:#000000;stroke-width:0.264583;stroke-opacity:1"
       d="m 158.6737,105.14946 -15.75484,9.0731"
       id="path4500" /><path
       style="display:inline;opacity:0.653;fill:none;stroke:#000000;stroke-width:0.264583;stroke-opacity:1"
       d="m 142.95403,128.32454 c 0.14067,-0.0352 15.61416,-8.82693 15.61416,-8.82693"
       id="path4502" /><path
       style="display:inline;opacity:0.653;fill:none;stroke:#000000;stroke-width:0.264583;stroke-opacity:1"
       d="m 142.77819,156.88018 15.86034,-9.00277"
       id="path4506" /><path
       style="display:inline;opacity:0.653;fill:none;stroke:#000000;stroke-width:0.264583;stroke-opacity:1"
       d="m 142.77819,142.84853 15.89551,-9.3896"
       id="path4504" /><path
       style="display:inline;opacity:0.653;fill:none;stroke:#000000;stroke-width:0.264583;stroke-opacity:1"
       d="m 108.09622,159.52088 0.1741,18.302 0.72113,-0.34814 -0.14917,-18.37661"
       id="path4528" /><path
       style="display:inline;opacity:0.653;fill:none;stroke:#000000;stroke-width:0.264583;stroke-opacity:1"
       d="m 147.91258,114.57422 5.62673,-3.12986 -0.1055,4.76513 -5.50364,3.23537 z"
       id="path4177" /><path
       style="display:inline;opacity:0.653;fill:none;stroke:#000000;stroke-width:0.264583;stroke-opacity:1"
       d="M 98.231851,60.429778 82.923887,51.13288 56.267267,66.606379 72.092438,75.960813"
       id="path4276" /><path
       style="display:inline;opacity:0.653;fill:none;stroke:#000000;stroke-width:0.264583;stroke-opacity:1"
       d="m 153.53931,111.49711 0.9671,-0.63301 -0.28135,5.92565 -6.22457,3.65738 -0.0175,-1.03743"
       id="path4179" /><path
       style="display:inline;opacity:0.653;fill:none;stroke:#000000;stroke-width:0.264583;stroke-opacity:1"
       d="M 59.291635,66.606379 82.783219,52.820897 95.72469,60.346645 72.022104,74.272795 Z"
       id="path4278" /><path
       style="display:inline;opacity:0.653;fill:none;stroke:#000000;stroke-width:0.264583;stroke-opacity:1"
       d="m 153.34589,116.20949 0.75609,0.47475"
       id="path4181" /><path
       style="display:inline;opacity:0.653;fill:none;stroke:#000000;stroke-width:0.264583;stroke-opacity:1"
       d="m 154.36574,152.57222 0.87917,-0.61543 -0.12309,11.65787"
       id="path4199" /><path
       style="display:inline;opacity:0.653;fill:none;stroke:#000000;stroke-width:0.264583;stroke-opacity:1"
       d="m 153.45139,125.63426 0.70334,-0.59784 v 5.85532 l -6.17182,3.78046 -0.0176,-1.05502"
       id="path4185" /><path
       style="display:inline;opacity:0.653;fill:none;stroke:#000000;stroke-width:0.264583;stroke-opacity:1"
       d="m 108.86709,177.47473 11.19008,6.63945"
       id="path4008" /><path
       style="display:inline;opacity:0.653;fill:none;stroke:#000000;stroke-width:0.264583;stroke-opacity:1"
       d="m 147.94775,128.88721 5.48606,-3.23537 0.0175,4.76514 -5.45089,3.23536 z"
       id="path4183" /><path
       style="display:inline;opacity:0.653;fill:none;stroke:#000000;stroke-width:0.264583;stroke-opacity:1"
       d="m 153.43381,130.43456 0.68576,0.422"
       id="path4187"/><path
       style="display:inline;opacity:0.653;fill:none;stroke:#000000;stroke-width:0.264583;stroke-opacity:1"
       d="m 153.29314,139.94725 0.86159,-0.56268 -0.1407,5.73223 -5.94323,3.69254 -0.0351,-1.05501"
       id="path4191" /><path
       style="display:inline;opacity:0.653;fill:none;stroke:#000000;stroke-width:0.264583;stroke-opacity:1"
       d="m 147.98292,142.9892 5.36297,-3.09471 -0.0351,4.65964 -5.25747,3.18262 z"
       id="path4189" /><path
       style="display:inline;opacity:0.653;fill:none;stroke:#000000;stroke-width:0.264583;stroke-opacity:1"
       d="M 120.22197,110.56656 79.474466,87.232925 80.966479,86.337719 119.75877,108.71789 155.56704,88.62547 102.69476,57.832809 102.45144,57.779021"
       id="path4004" /><path
       style="display:inline;opacity:0.653;fill:none;stroke:#000000;stroke-width:0.264583;stroke-opacity:1"
       d="M 158.65053,88.128133 102.45144,56.000157 96.458529,59.282582"
       id="path4002" /><path
       style="display:inline;opacity:0.653;fill:none;stroke:#000000;stroke-width:0.264583;stroke-opacity:1"
       d="m 147.71917,167.14895 -0.0175,0.79126"
       id="path4201" /><path
       style="opacity:0.653;fill:none;stroke:#000000;stroke-width:0.264583;stroke-opacity:1"
       d="m 120.34162,114.01155 22.57724,-13.08214 -0.0703,13.29315 -22.50694,13.08214"
       id="path4063" /><path
       style="opacity:0.653;fill:none;stroke:#000000;stroke-width:0.264583;stroke-opacity:1"
       d="m 120.27129,128.43004 22.57724,-13.22281 0.0703,13.08214 -22.43654,13.08214"
       id="path4065" /><path
       style="display:inline;opacity:0.653;fill:none;stroke:#000000;stroke-width:0.264583;stroke-opacity:1"
       d="m 153.29313,144.5893 0.68576,0.54508"
       id="path4193"/><path
       style="display:inline;opacity:0.653;fill:none;stroke:#000000;stroke-width:0.264583;stroke-opacity:1"
       d="m 147.66641,156.26476 6.73449,-3.76288 -0.1934,10.86661 -2.93293,1.68505 -3.55539,2.04266 z"
       id="path4195" /><path
       style="opacity:0.653;fill:none;stroke:#000000;stroke-width:0.264583;stroke-opacity:1"
       d="m 120.20095,142.49686 22.50691,-13.08214 0.0703,13.36348 -22.48933,12.9063"
       id="path4067" /><path
       style="display:inline;opacity:0.653;fill:none;stroke:#000000;stroke-width:0.264583;stroke-opacity:1"
       d="m 151.21828,154.31298 0.0528,10.74354"
       id="path4197" /><path
       style="opacity:0.653;fill:none;stroke:#000000;stroke-width:0.264583;stroke-opacity:1"
       d="m 120.06028,156.77468 22.71791,-13.15248 v 13.29315 l -22.5069,12.87113"
       id="path4069" /><path
       style="opacity:0.653;fill:none;stroke:#000000;stroke-width:0.264583;stroke-opacity:1"
       d="m 120.27129,170.84149 22.64757,-13.0118 -0.14063,13.36348"
       id="path4071"/><path
       style="opacity:0.653;fill:none;stroke:#000000;stroke-width:0.264583;stroke-opacity:1"
       d="M 79.477517,90.590303 120.34162,114.15222"
       id="path4073" /><path
       style="opacity:0.653;fill:none;stroke:#000000;stroke-width:0.264583;stroke-opacity:1"
       d="m 79.477517,103.95378 40.723433,23.21025"
       id="path4075" /><path
       style="opacity:0.653;fill:none;stroke:#000000;stroke-width:0.264583;stroke-opacity:1"
       d="m 79.547851,104.86812 40.793769,23.42125"
       id="path4077" /><path
       style="opacity:0.653;fill:none;stroke:#000000;stroke-width:0.264583;stroke-opacity:1"
       d="m 79.618185,118.16126 40.512435,23.21025"
       id="path4079" /><path
       style="opacity:0.653;fill:none;stroke:#000000;stroke-width:0.264583;stroke-opacity:1"
       d="m 79.547851,119.00527 40.653099,23.56192"
       id="path4081"/><path
       style="opacity:0.653;fill:none;stroke:#000000;stroke-width:0.264583;stroke-opacity:1"
       d="m 79.477517,132.08741 40.793773,23.56192"
       id="path4083" /><path
       style="opacity:0.653;fill:none;stroke:#000000;stroke-width:0.264583;stroke-opacity:1"
       d="m 79.477517,133.28309 40.582763,23.21025"
       id="path4085" /><path
       style="opacity:0.653;fill:none;stroke:#000000;stroke-width:0.264583;stroke-opacity:1"
       d="m 79.618185,146.43556 10.620447,6.11907"
       id="path4087" /><path
       style="opacity:0.653;fill:none;stroke:#000000;stroke-width:0.264583;stroke-opacity:1"
       d="m 79.477517,147.42024 10.831449,6.33007"
       id="path4089" /><path
       style="opacity:0.653;fill:none;stroke:#000000;stroke-width:0.264583;stroke-opacity:1"
       d="m 108.9141,163.36121 11.28685,6.49561"
       id="path4091"/><path
       style="opacity:0.653;fill:none;stroke:#000000;stroke-width:0.264583;stroke-opacity:1"
       d="m 108.9475,164.51142 11.18312,6.40041"
       id="path4093"/><path
       style="opacity:0.653;fill:none;stroke:#000000;stroke-width:0.264583;stroke-opacity:1"
       d="m 91.574979,168.52047 0.174068,-11.61292 15.154503,8.64255 -0.0169,11.34013 1.36122,1.02587"
       id="path4095"/><path
       style="opacity:0.653;fill:none;stroke:#000000;stroke-width:0.264583;stroke-opacity:1"
       d="m 107.97188,159.59547 -17.555999,-10.29488 0.845474,-0.34813 17.556005,10.09594 z"
       id="path4163"/><path
       style="opacity:0.653;fill:none;stroke:#000000;stroke-width:0.264583;stroke-opacity:1"
       d="m 90.26668,149.35033 0.124334,18.20254 1.218477,0.8206"
       id="path4165"/><path
       style="opacity:0.653;fill:none;stroke:#000000;stroke-width:0.264583;stroke-opacity:1"
       d="M 90.341281,166.8566 79.623668,160.68961 V 87.332393"
       id="path4167"/><path
       style="opacity:0.653;fill:none;stroke:#000000;stroke-width:0.264583;stroke-opacity:1"
       d="m 147.90805,100.48696 -3e-5,4.97337 5.57018,-3.40676 -0.12434,-4.674969 z"
       id="path4169"/><path
       style="opacity:0.653;fill:none;stroke:#000000;stroke-width:0.264583;stroke-opacity:1"
       d="m 153.34057,97.438635 0.21963,-0.181448 0.73863,-0.450529 -0.0454,5.780662 -6.33678,3.73128 -0.0334,-0.75881"
       id="path4173"/><path
       style="opacity:0.653;fill:none;stroke:#000000;stroke-width:0.264583;stroke-opacity:1"
       d="m 153.45336,102.00384 0.87034,0.64653"
       id="path4175"/><path
       style="opacity:0.653;fill:none;stroke:#000000;stroke-width:0.264583;stroke-opacity:1"
       d="m 93.238861,157.83572 -0.222033,9.82794 -1.402414,0.77368"
       id="path4217"/><path
       style="opacity:0.653;fill:none;stroke:#000000;stroke-width:0.264583;stroke-opacity:1"
       d="m 93.128364,167.65763 13.717646,7.93568"
       id="path4219"/><path
       style="opacity:0.653;fill:none;stroke:#000000;stroke-width:0.264583;stroke-opacity:1"
       d="m 100.01507,161.55739 -0.422005,9.74127"
       id="path4221" /><path
       style="opacity:0.653;fill:none;stroke:#000000;stroke-width:0.264583;stroke-opacity:1"
       d="m 83.733464,87.835764 14.739279,-8.759167 -0.248669,-18.50094 -26.209664,15.317984 0.09947,89.222269 7.509791,-4.4263"
       id="path4223"/><path
       style="opacity:0.653;fill:none;stroke:#000000;stroke-width:0.264583;stroke-opacity:1"
       d="M 60.838984,67.450387 82.853553,54.508915 94.330809,61.128853"
       id="path4282"/><path
       style="opacity:0.653;fill:none;stroke:#000000;stroke-width:0.264583;stroke-opacity:1"
       d="m 56.056265,66.606379 0.211002,89.746291 3.165036,1.54735 0.05275,-11.83371 7.560912,4.43105 0.01758,11.4117 5.028889,3.30571"
       id="path4284"/><path
       style="opacity:0.653;fill:none;stroke:#000000;stroke-width:0.264583;stroke-opacity:1"
       d="M 56.056265,70.967091 72.022104,79.89952 98.31852,64.587291"
       id="path4286"/><path
       style="opacity:0.653;fill:none;stroke:#000000;stroke-width:0.264583;stroke-opacity:1"
       d="m 55.985933,84.893242 16.036171,9.495101 7.666416,-4.571716"
       id="path4294" /><path
       style="opacity:0.653;fill:none;stroke:#000000;stroke-width:0.264583;stroke-opacity:1"
       d="m 55.985933,99.100726 16.106505,9.213764 7.525747,-4.36071"
       id="path4296" /><path
       style="opacity:0.653;fill:none;stroke:#000000;stroke-width:0.264583;stroke-opacity:1"
       d="m 56.056265,113.73022 16.176841,8.86209 7.525748,-4.50138"
       id="path4298" /><path
       style="opacity:0.653;fill:none;stroke:#000000;stroke-width:0.264583;stroke-opacity:1"
       d="m 56.056265,127.5157 15.825171,9.35443 7.807084,-4.78272"
       id="path4300" /><path
       style="opacity:0.653;fill:none;stroke:#000000;stroke-width:0.264583;stroke-opacity:1"
       d="m 56.196933,142.00452 15.895505,9.0731 7.596082,-4.57172"
       id="path4302" /><path
       style="opacity:0.653;fill:none;stroke:#000000;stroke-width:0.264583;stroke-opacity:1"
       d="m 60.557647,146.78724 -0.08791,10.53253 -0.967093,0.65059"
       id="path4304"/><path
       style="opacity:0.653;fill:none;stroke:#000000;stroke-width:0.264583;stroke-opacity:1"
       d="m 60.46973,157.26702 6.558655,3.86837"
       id="path4306"/><path
       style="opacity:0.653;fill:none;stroke:#000000;stroke-width:0.264583;stroke-opacity:1"
       d="m 64.074351,148.70384 -0.281337,10.53253"
       id="path4308" /><path
       style="opacity:0.653;fill:none;stroke:#000000;stroke-width:0.264583;stroke-opacity:1"
       d="M 86.636121,94.717849 86.337718,107.82268"
       id="path4310"/><path
       style="opacity:0.653;fill:none;stroke:#000000;stroke-width:0.264583;stroke-opacity:1"
       d="M 87.332393,94.991384 87.058857,108.27028"
       id="path4312"/><path
       style="opacity:0.653;fill:none;stroke:#000000;stroke-width:0.264583;stroke-opacity:1"
       d="M 92.8031,98.273808 92.70363,111.60244"
       id="path4314" /><path
       style="opacity:0.653;fill:none;stroke:#000000;stroke-width:0.264583;stroke-opacity:1"
       d="M 93.648574,98.796012 93.59884,112.00031"
       id="path4316"/><path
       style="opacity:0.653;fill:none;stroke:#000000;stroke-width:0.264583;stroke-opacity:1"
       d="m 99.865287,102.25251 -0.09947,13.22916"
       id="path4318" /><path
       style="opacity:0.653;fill:none;stroke:#000000;stroke-width:0.264583;stroke-opacity:1"
       d="m 100.50741,102.61743 -0.0703,13.15247"
       id="path4320" /><path
       style="opacity:0.653;fill:none;stroke:#000000;stroke-width:0.264583;stroke-opacity:1"
       d="m 106.55614,106.2748 -0.14067,13.15248"
       id="path4322" /><path
       style="opacity:0.653;fill:none;stroke:#000000;stroke-width:0.264583;stroke-opacity:1"
       d="m 107.25948,106.48581 -0.14067,13.29314"
       id="path4324" /><path
       style="opacity:0.653;fill:none;stroke:#000000;stroke-width:0.264583;stroke-opacity:1"
       d="m 113.30821,109.93217 v 13.29315"
       id="path4326" /><path
       style="opacity:0.653;fill:none;stroke:#000000;stroke-width:0.264583;stroke-opacity:1"
       d="m 113.87088,110.28385 0.14067,13.50414"
       id="path4328" /><path
       style="opacity:0.653;fill:none;stroke:#000000;stroke-width:0.264583;stroke-opacity:1"
       d="m 86.560271,75.022051 4.864852,-2.83784 -0.0643,9.677474 -4.831452,2.840336 z"
       id="path4342"/><path
       style="opacity:0.653;fill:none;stroke:#000000;stroke-width:0.264583;stroke-opacity:1"
       d="m 61.321663,77.311049 5.470708,3.108358 -0.09946,4.674968 -5.29664,-3.083488 z"
       id="path4406"/><path
       style="opacity:0.653;fill:none;stroke:#000000;stroke-width:0.264583;stroke-opacity:1"
       d="m 61.35683,77.351 -0.628437,-0.374253 0.04672,5.651024 5.299871,3.098059 0.644039,-0.664122"
       id="path4408"/><path
       style="opacity:0.653;fill:none;stroke:#000000;stroke-width:0.264583;stroke-opacity:1"
       d="m 60.742959,82.648372 0.669639,-0.69627"
       id="path4410"/><path
       style="opacity:0.653;fill:none;stroke:#000000;stroke-width:0.264583;stroke-opacity:1"
       d="m 61.391997,91.536657 -0.07585,4.566451 5.411923,3.121157 0.02913,-4.571966 z"
       id="path4412"/><path
       style="opacity:0.653;fill:none;stroke:#000000;stroke-width:0.264583;stroke-opacity:1"
       d="m 61.459315,91.516057 -0.721872,-0.438553 -0.01207,5.446573 5.660074,3.352246 0.395371,-0.581723"
       id="path4414"/><path
       style="opacity:0.653;fill:none;stroke:#000000;stroke-width:0.264583;stroke-opacity:1"
       d="M 60.698743,96.556227 61.348297,96.07096"
       id="path4416"/><path
       style="opacity:0.653;fill:none;stroke:#000000;stroke-width:0.264583;stroke-opacity:1"
       d="m 61.310114,105.62587 -0.08189,4.61015 5.549574,3.14175 0.0206,-4.53076 z"
       id="path4418"/><path
       style="opacity:0.653;fill:none;stroke:#000000;stroke-width:0.264583;stroke-opacity:1"
       d="m 61.401048,105.6962 -0.736955,-0.40942 -0.003,5.42245 0.584739,-0.4702"
       id="path4420"/><path
       style="opacity:0.653;fill:none;stroke:#000000;stroke-width:0.264583;stroke-opacity:1"
       d="m 60.663576,110.83834 5.683691,3.17692 0.47122,-0.67266"
       id="path4422"/><path
       style="opacity:0.653;fill:none;stroke:#000000;stroke-width:0.264583;stroke-opacity:1"
       d="m 61.441731,119.94616 -0.117053,4.39363 5.320988,3.16236 0.05878,-4.59809 z"
       id="path4424"/><path
       style="opacity:0.653;fill:none;stroke:#000000;stroke-width:0.264583;stroke-opacity:1"
       d="m 61.353813,134.09414 -0.09343,4.47854 5.347623,3.08599 0.02914,-4.57197 z"
       id="path4432"/><path
       style="opacity:0.653;fill:none;stroke:#000000;stroke-width:0.264583;stroke-opacity:1"
       d="m 85.877918,151.21828 -0.211003,12.94148"
       id="path4440" /><path
       style="opacity:0.653;fill:none;stroke:#000000;stroke-width:0.264583;stroke-opacity:1"
       d="m 86.651594,151.56995 -0.281337,12.80081"
       id="path4442" /><path
       style="opacity:0.653;fill:none;stroke:#000000;stroke-width:0.264583;stroke-opacity:1"
       d="m 113.45314,167.16778 -0.28986,12.90382"
       id="path4444"/><path
       style="opacity:0.653;fill:none;stroke:#000000;stroke-width:0.264583;stroke-opacity:1"
       d="m 113.94122,167.39512 -0.28134,12.95781"
       id="path4446"/><path
       style="opacity:0.653;fill:none;stroke:#000000;stroke-width:0.264583;stroke-opacity:1"
       d="m 131.26401,164.51996 0.17407,13.18087"
       id="path4452"/><path
       style="opacity:0.653;fill:none;stroke:#000000;stroke-width:0.264583;stroke-opacity:1"
       d="m 131.80608,164.28409 0.17407,13.11053"
       id="path4454"/><path
       style="opacity:0.653;fill:none;stroke:#000000;stroke-width:0.264583;stroke-opacity:1"
       d="m 136.9169,161.23668 0.0497,13.2789"
       id="path4456" /><path
       style="opacity:0.653;fill:none;stroke:#000000;stroke-width:0.264583;stroke-opacity:1"
       d="m 137.56344,160.93828 0.0497,13.2789"
       id="path4458" /><path
       style="opacity:0.653;fill:none;stroke:#000000;stroke-width:0.264583;stroke-opacity:1"
       d="m 131.24726,121.94705 v 13.1297"
       id="path4472" /><path
       style="opacity:0.653;fill:none;stroke:#000000;stroke-width:0.264583;stroke-opacity:1"
       d="m 131.99327,121.54919 c 0,0 -0.14921,12.78155 -0.0995,13.03022"
       id="path4474"/><path
       style="opacity:0.653;fill:none;stroke:#000000;stroke-width:0.264583;stroke-opacity:1"
       d="m 125.52788,167.87613 0.24867,13.05511"
       id="path4484"/><path
       style="opacity:0.653;fill:none;stroke:#000000;stroke-width:0.264583;stroke-opacity:1"
       d="m 126.05009,167.60259 0.17406,13.03024"
       id="path4486"/><path
       style="opacity:0.653;fill:none;stroke:#000000;stroke-width:0.264583;stroke-opacity:1"
       d="m 125.68701,110.88169 0.0352,13.18764"
       id="path4488" /><path
       style="opacity:0.653;fill:none;stroke:#000000;stroke-width:0.264583;stroke-opacity:1"
       d="m 126.03868,110.63552 0.0703,13.32831"
       id="path4490" /><path
       style="opacity:0.653;fill:none;stroke:#000000;stroke-width:0.264583;stroke-opacity:1"
       d="m 131.2434,107.64632 v 13.36347"
       id="path4492" /><path
       style="opacity:0.653;fill:none;stroke:#000000;stroke-width:0.264583;stroke-opacity:1"
       d="m 131.77091,107.36498 0.0352,13.25798"
       id="path4494" /><path
       style="opacity:0.653;fill:none;stroke:#000000;stroke-width:0.264583;stroke-opacity:1"
       d="m 137.0108,104.30545 0.0703,13.32831"
       id="path4496" /><path
       style="opacity:0.653;fill:none;stroke:#000000;stroke-width:0.264583;stroke-opacity:1"
       d="m 137.46797,104.02411 0.1055,13.22281"
       id="path4498" /><path
       style="opacity:0.653;fill:none;stroke:#000000;stroke-width:0.264583;stroke-opacity:1"
       d="m 147.75433,167.92263 7.43783,-4.3783"
       id="path4508" /><path
       style="opacity:0.653;fill:none;stroke:#000000;stroke-width:0.264583;stroke-opacity:1"
       d="m 91.399145,72.197938 0.791257,-0.422003 0.01758,10.972115"
       id="path4510"/><path
       style="opacity:0.653;fill:none;stroke:#000000;stroke-width:0.264583;stroke-opacity:1"
       d="m 86.575742,84.686507 -0.01757,1.406681"
       id="path4512"/><path
       style="opacity:0.653;fill:none;stroke:#000000;stroke-width:0.264583;stroke-opacity:1"
       d="m 98.050007,60.326989 4.482063,-2.593436"
       id="path4516"/><path
       style="opacity:0.653;fill:none;stroke:#000000;stroke-width:0.264583;stroke-opacity:1"
       d="m 98.22155,61.788494 4.07938,-2.532028 52.15272,29.927153"
       id="path4518" /><path
       style="opacity:0.653;fill:none;stroke:#000000;stroke-width:0.264583;stroke-opacity:1"
       d="m 61.524741,119.98995 -0.861592,-0.36926 -2e-6,5.34539 5.433308,3.28813 0.54509,-0.7561"
       id="path4520"/><path
       style="opacity:0.653;fill:none;stroke:#000000;stroke-width:0.264583;stroke-opacity:1"
       d="m 61.401656,124.33308 -0.59784,0.56267"
       id="path4522"/><path
       style="opacity:0.653;fill:none;stroke:#000000;stroke-width:0.264583;stroke-opacity:1"
       d="m 61.559909,134.17986 -0.808844,-0.5451 -0.105501,5.43331 5.644308,3.23537 0.316504,-0.6506"
       id="path4524"/><path
       style="opacity:0.653;fill:none;stroke:#000000;stroke-width:0.264583;stroke-opacity:1"
       d="m 61.313739,138.55815 -0.59784,0.45717"
       id="path4526"/><path
       style="opacity:0.653;fill:none;stroke:#000000;stroke-width:0.264583;stroke-opacity:1"
       d="m 92.8031,112.44792 v 13.32863"
       id="path4539" /><path
       style="opacity:0.653;fill:none;stroke:#000000;stroke-width:0.264583;stroke-opacity:1"
       d="m 93.549106,112.79605 -0.149201,13.32864"
       id="path4541" /><path
       style="opacity:0.653;fill:none;stroke:#000000;stroke-width:0.264583;stroke-opacity:1"
       d="m 92.852834,126.72149 -0.02487,13.10483"
       id="path4543" /><path
       style="opacity:0.653;fill:none;stroke:#000000;stroke-width:0.264583;stroke-opacity:1"
       d="m 93.573972,127.14423 -0.174067,12.98049"
       id="path4545" /><path
       style="opacity:0.653;fill:none;stroke:#000000;stroke-width:0.264583;stroke-opacity:1"
       d="m 92.852834,141.01993 -0.04973,8.75313"
       id="path4547" /><path
       style="opacity:0.653;fill:none;stroke:#000000;stroke-width:0.264583;stroke-opacity:0"
       d="m 142.8837,115.1369 0.0703,13.15247 -11.00729,6.36524 V 121.5373 Z"
       id="Office3.4"/><path
       style="opacity:0.653;fill:none;stroke:#000000;stroke-width:0.264583;stroke-opacity:0"
       d="m 106.94298,120.65812 13.39864,7.66642 10.93695,-6.2949 0.0352,12.97664 -11.00729,6.47073 -13.46897,-7.77191 z"
       id="Office3.3"/><path
       style="opacity:0.653;fill:none;stroke:#000000;stroke-width:0.264583;stroke-opacity:0"
       d="m 93.579502,112.99171 12.800808,7.31474 -0.17584,13.15248 -12.800805,-7.49058 z"
       id="Office3.2"/><path
       style="opacity:0.653;fill:none;stroke:#000000;stroke-width:0.264583;stroke-opacity:0"
       d="m 79.618185,104.90329 13.187641,7.59608 v 13.25798 L 79.68852,118.1261 Z"
       id="Office3.1"/><path
       style="opacity:0.653;fill:none;stroke:#000000;stroke-width:0.264583;stroke-opacity:0"
       d="m 79.653351,119.07561 13.222809,7.70158 -0.07033,13.04697 -13.222809,-7.70158 z"
       id="Office2.1"/><path
       style="opacity:0.653;fill:none;stroke:#000000;stroke-width:0.264583;stroke-opacity:0"
       d="m 93.614667,127.12886 12.695303,7.38508 0.0352,13.04697 -12.941475,-7.45541 z"
       id="Office2.2"/><path
       style="opacity:0.653;fill:none;stroke:#000000;stroke-width:0.264583;stroke-opacity:0"
       d="m 106.90781,134.83044 13.39864,7.70158 10.86662,-6.43556 0.1055,13.29314 -11.00728,6.33006 -13.36348,-7.80708 z"
       id="Office2.3"/><path
       style="opacity:0.653;fill:none;stroke:#000000;stroke-width:0.264583;stroke-opacity:0"
       d="m 131.84124,135.74478 10.86662,-6.33006 0.1055,13.39864 -10.79628,6.0839 z"
       id="Office2.4"/><path
       style="opacity:0.653;fill:none;stroke:#000000;stroke-width:0.264583;stroke-opacity:0"
       d="m 131.91158,149.95227 10.83145,-6.2949 0.1055,13.25798 -10.93695,6.22456 z"
       id="Office1.4"/><path
       style="opacity:0.653;fill:none;stroke:#000000;stroke-width:0.264583;stroke-opacity:0"
       d="m 106.94298,148.96759 13.25797,7.66642 11.11279,-6.2949 -0.0352,13.18764 -11.07762,6.22457 -11.32379,-6.33007 -0.0352,-4.29038 -1.96936,-1.26601 z"
       id="Office1.3"/><path
       style="opacity:0.653;fill:none;stroke:#000000;stroke-width:0.264583;stroke-opacity:0"
       d="m 93.544333,141.40668 12.800807,7.24441 -0.1055,8.93243 -12.835975,-7.34991 z"
       id="Office1.2"/><path
       style="opacity:0.653;fill:none;stroke:#000000;stroke-width:0.264583;stroke-opacity:0"
       d="m 79.618185,133.38859 v 13.15248 l 10.585278,5.9784 0.03517,-3.02437 1.05501,-0.52751 1.582518,0.91434 v -8.89726 z"
       id="Office1.1" /></g></svg>
