<?xml version="1.0" encoding="UTF-8"?>
<svg width="210mm" height="297mm" version="1.1" viewBox="0 0 210 297" xml:space="preserve"
     xmlns="http://www.w3.org/2000/svg"><g fill="none"><path d="m158.55 88.327 0.0995 73.904-38.467 21.815 0.16727-73.38c14.185-8.3516 24.905-14.581 37.604-21.941z" opacity=".653" stroke="#000" stroke-width=".26458"/><path
        d="m93.549 141.29-0.12434 8.9272" opacity=".653" stroke="#000" stroke-width=".26458"/><path
        d="m106.36 120.28-0.12433 13.105" opacity=".653" stroke="#000" stroke-width=".26458"/><path
        d="m106.98 120.6-0.17407 13.155" opacity=".653" stroke="#000" stroke-width=".26458"/><path
        d="m106.26 134.58 0.0497 12.931" opacity=".653" stroke="#000" stroke-width=".26458"/><path
        d="m106.85 134.8 0.0497 13.13" opacity=".653" stroke="#000" stroke-width=".26458"/><path
        d="m106.31 148.58-0.0249 9.0018" opacity=".653" stroke="#000" stroke-width=".26458"/><path
        d="m106.9 148.95-0.0249 8.9521" opacity=".653" stroke="#000" stroke-width=".26458"/><path
        d="m131.2 136.02 0.0497 13.229" opacity=".653" stroke="#000" stroke-width=".26458"/><path
        d="m131.84 135.7 8e-3 0.94507 0.0915 12.309" opacity=".653" stroke="#000" stroke-width=".26458"/><path
        d="m131.35 150.27-0.0703 13.223" opacity=".653" stroke="#000" stroke-width=".26458"/><path
        d="m131.95 149.85-0.0703 13.328" opacity=".653" stroke="#000" stroke-width=".26458"/><path
        d="m158.67 105.15-15.755 9.0731" opacity=".653" stroke="#000" stroke-width=".26458"/><path
        d="m142.95 128.32c0.14067-0.0352 15.614-8.8269 15.614-8.8269" opacity=".653" stroke="#000"
        stroke-width=".26458"/><path d="m142.78 156.88 15.86-9.0028" opacity=".653" stroke="#000"
                                     stroke-width=".26458"/><path d="m142.78 142.85 15.896-9.3896" opacity=".653"
                                                                  stroke="#000" stroke-width=".26458"/><path
        d="m108.1 159.52 0.1741 18.302 0.72113-0.34814-0.14917-18.377" opacity=".653" stroke="#000"
        stroke-width=".26458"/><path d="m147.91 114.57 5.6267-3.1299-0.1055 4.7651-5.5036 3.2354z" opacity=".653"
                                     stroke="#000" stroke-width=".26458"/><path
        d="m98.232 60.43-15.308-9.2969-26.657 15.473 15.825 9.3544" opacity=".653" stroke="#000" stroke-width=".26458"/><path
        d="m153.54 111.5 0.9671-0.63301-0.28135 5.9256-6.2246 3.6574-0.0175-1.0374" opacity=".653" stroke="#000"
        stroke-width=".26458"/><path d="m59.292 66.606 23.492-13.785 12.941 7.5257-23.703 13.926z" opacity=".653"
                                     stroke="#000" stroke-width=".26458"/><path d="m153.35 116.21 0.75609 0.47475"
                                                                                opacity=".653" stroke="#000"
                                                                                stroke-width=".26458"/><path
        d="m154.37 152.57 0.87917-0.61543-0.12309 11.658" opacity=".653" stroke="#000" stroke-width=".26458"/><path
        d="m153.45 125.63 0.70334-0.59784v5.8553l-6.1718 3.7805-0.0176-1.055" opacity=".653" stroke="#000"
        stroke-width=".26458"/><path d="m108.87 177.47 11.19 6.6394" opacity=".653" stroke="#000"
                                     stroke-width=".26458"/><path
        d="m147.95 128.89 5.4861-3.2354 0.0175 4.7651-5.4509 3.2354z" opacity=".653" stroke="#000"
        stroke-width=".26458"/><path d="m153.43 130.43 0.68576 0.422" opacity=".653" stroke="#000"
                                     stroke-width=".26458"/><path
        d="m153.29 139.95 0.86159-0.56268-0.1407 5.7322-5.9432 3.6925-0.0351-1.055" opacity=".653" stroke="#000"
        stroke-width=".26458"/><path d="m147.98 142.99 5.363-3.0947-0.0351 4.6596-5.2575 3.1826z" opacity=".653"
                                     stroke="#000" stroke-width=".26458"/><path
        d="m120.22 110.57-40.748-23.334 1.492-0.89521 38.792 22.38 35.808-20.092-52.872-30.793-0.24332-0.053788"
        opacity=".653" stroke="#000" stroke-width=".26458"/><path d="m158.65 88.128-56.199-32.128-5.9929 3.2824"
                                                                  opacity=".653" stroke="#000" stroke-width=".26458"/><path
        d="m147.72 167.15-0.0175 0.79126" opacity=".653" stroke="#000" stroke-width=".26458"/><path
        d="m120.34 114.01 22.577-13.082-0.0703 13.293-22.507 13.082" opacity=".653" stroke="#000"
        stroke-width=".26458"/><path d="m120.27 128.43 22.577-13.223 0.0703 13.082-22.437 13.082" opacity=".653"
                                     stroke="#000" stroke-width=".26458"/><path d="m153.29 144.59 0.68576 0.54508"
                                                                                opacity=".653" stroke="#000"
                                                                                stroke-width=".26458"/><path
        d="m147.67 156.26 6.7345-3.7629-0.1934 10.867-6.4883 3.7277z" opacity=".653" stroke="#000"
        stroke-width=".26458"/><path d="m120.2 142.5 22.507-13.082 0.0703 13.363-22.489 12.906" opacity=".653"
                                     stroke="#000" stroke-width=".26458"/><path d="m151.22 154.31 0.0528 10.744"
                                                                                opacity=".653" stroke="#000"
                                                                                stroke-width=".26458"/><path
        d="m120.06 156.77 22.718-13.152v13.293l-22.507 12.871" opacity=".653" stroke="#000" stroke-width=".26458"/><path
        d="m120.27 170.84 22.648-13.012-0.14063 13.363" opacity=".653" stroke="#000" stroke-width=".26458"/><path
        d="m79.478 90.59 40.864 23.562" opacity=".653" stroke="#000" stroke-width=".26458"/><path
        d="m79.478 103.95 40.723 23.21" opacity=".653" stroke="#000" stroke-width=".26458"/><path
        d="m79.548 104.87 40.794 23.421" opacity=".653" stroke="#000" stroke-width=".26458"/><path
        d="m79.618 118.16 40.512 23.21" opacity=".653" stroke="#000" stroke-width=".26458"/><path
        d="m79.548 119.01 40.653 23.562" opacity=".653" stroke="#000" stroke-width=".26458"/><path
        d="m79.478 132.09 40.794 23.562" opacity=".653" stroke="#000" stroke-width=".26458"/><path
        d="m79.478 133.28 40.583 23.21" opacity=".653" stroke="#000" stroke-width=".26458"/><path
        d="m79.618 146.44 10.62 6.1191" opacity=".653" stroke="#000" stroke-width=".26458"/><path
        d="m79.478 147.42 10.831 6.3301" opacity=".653" stroke="#000" stroke-width=".26458"/><path
        d="m108.91 163.36 11.287 6.4956" opacity=".653" stroke="#000" stroke-width=".26458"/><path
        d="m108.95 164.51 11.183 6.4004" opacity=".653" stroke="#000" stroke-width=".26458"/><path
        d="m91.575 168.52 0.17407-11.613 15.155 8.6426-0.0169 11.34 1.3612 1.0259" opacity=".653" stroke="#000"
        stroke-width=".26458"/><path d="m107.97 159.6-17.556-10.295 0.84547-0.34813 17.556 10.096z" opacity=".653"
                                     stroke="#000" stroke-width=".26458"/><path
        d="m90.267 149.35 0.12433 18.203 1.2185 0.8206" opacity=".653" stroke="#000" stroke-width=".26458"/><path
        d="m90.341 166.86-10.718-6.167v-73.357" opacity=".653" stroke="#000" stroke-width=".26458"/><path
        d="m147.91 100.49-3e-5 4.9734 5.5702-3.4068-0.12434-4.675z" opacity=".653" stroke="#000" stroke-width=".26458"/><path
        d="m153.34 97.439 0.21963-0.18145 0.73863-0.45053-0.0454 5.7807-6.3368 3.7313-0.0334-0.75881" opacity=".653"
        stroke="#000" stroke-width=".26458"/><path d="m153.45 102 0.87034 0.64653" opacity=".653" stroke="#000"
                                                   stroke-width=".26458"/><path
        d="m93.239 157.84-0.22203 9.8279-1.4024 0.77368" opacity=".653" stroke="#000" stroke-width=".26458"/><path
        d="m93.128 167.66 13.718 7.9357" opacity=".653" stroke="#000" stroke-width=".26458"/><path
        d="m100.02 161.56-0.422 9.7413" opacity=".653" stroke="#000" stroke-width=".26458"/><path
        d="m83.733 87.836 14.739-8.7592-0.24867-18.501-26.21 15.318 0.09947 89.222 7.5098-4.4263" opacity=".653"
        stroke="#000" stroke-width=".26458"/><path d="m60.839 67.45 22.015-12.941 11.477 6.6199" opacity=".653"
                                                   stroke="#000" stroke-width=".26458"/><path
        d="m56.056 66.606 0.211 89.746 3.165 1.5474 0.05275-11.834 7.5609 4.431 0.01758 11.412 5.0289 3.3057"
        opacity=".653" stroke="#000" stroke-width=".26458"/><path d="m56.056 70.967 15.966 8.9324 26.296-15.312"
                                                                  opacity=".653" stroke="#000" stroke-width=".26458"/><path
        d="m55.986 84.893 16.036 9.4951 7.6664-4.5717" opacity=".653" stroke="#000" stroke-width=".26458"/><path
        d="m55.986 99.101 16.107 9.2138 7.5257-4.3607" opacity=".653" stroke="#000" stroke-width=".26458"/><path
        d="m56.056 113.73 16.177 8.8621 7.5257-4.5014" opacity=".653" stroke="#000" stroke-width=".26458"/><path
        d="m56.056 127.52 15.825 9.3544 7.8071-4.7827" opacity=".653" stroke="#000" stroke-width=".26458"/><path
        d="m56.197 142 15.896 9.0731 7.5961-4.5717" opacity=".653" stroke="#000" stroke-width=".26458"/><path
        d="m60.558 146.79-0.08791 10.533-0.96709 0.65059" opacity=".653" stroke="#000" stroke-width=".26458"/><path
        d="m60.47 157.27 6.5587 3.8684" opacity=".653" stroke="#000" stroke-width=".26458"/><path
        d="m64.074 148.7-0.28134 10.533" opacity=".653" stroke="#000" stroke-width=".26458"/><path
        d="m86.636 94.718-0.2984 13.105" opacity=".653" stroke="#000" stroke-width=".26458"/><path
        d="m87.332 94.991-0.27354 13.279" opacity=".653" stroke="#000" stroke-width=".26458"/><path
        d="m92.803 98.274-0.09947 13.329" opacity=".653" stroke="#000" stroke-width=".26458"/><path
        d="m93.649 98.796-0.049734 13.204" opacity=".653" stroke="#000" stroke-width=".26458"/><path
        d="m99.865 102.25-0.09947 13.229" opacity=".653" stroke="#000" stroke-width=".26458"/><path
        d="m100.51 102.62-0.0703 13.152" opacity=".653" stroke="#000" stroke-width=".26458"/><path
        d="m106.56 106.27-0.14067 13.152" opacity=".653" stroke="#000" stroke-width=".26458"/><path
        d="m107.26 106.49-0.14067 13.293" opacity=".653" stroke="#000" stroke-width=".26458"/><path
        d="m113.31 109.93v13.293" opacity=".653" stroke="#000" stroke-width=".26458"/><path
        d="m113.87 110.28 0.14067 13.504" opacity=".653" stroke="#000" stroke-width=".26458"/><path
        d="m86.56 75.022 4.8649-2.8378-0.0643 9.6775-4.8315 2.8403z" opacity=".653" stroke="#000"
        stroke-width=".26458"/><path d="m61.322 77.311 5.4707 3.1084-0.09946 4.675-5.2966-3.0835z" opacity=".653"
                                     stroke="#000" stroke-width=".26458"/><path
        d="m61.357 77.351-0.62844-0.37425 0.04672 5.651 5.2999 3.0981 0.64404-0.66412" opacity=".653" stroke="#000"
        stroke-width=".26458"/><path d="m60.743 82.648 0.66964-0.69627" opacity=".653" stroke="#000"
                                     stroke-width=".26458"/><path
        d="m61.392 91.537-0.07585 4.5665 5.4119 3.1212 0.02913-4.572z" opacity=".653" stroke="#000"
        stroke-width=".26458"/><path d="m61.459 91.516-0.72187-0.43855-0.01207 5.4466 5.6601 3.3522 0.39537-0.58172"
                                     opacity=".653" stroke="#000" stroke-width=".26458"/><path
        d="m60.699 96.556 0.64955-0.48527" opacity=".653" stroke="#000" stroke-width=".26458"/><path
        d="m61.31 105.63-0.08189 4.6102 5.5496 3.1418 0.0206-4.5308z" opacity=".653" stroke="#000"
        stroke-width=".26458"/><path d="m61.401 105.7-0.73696-0.40942-3e-3 5.4224 0.58474-0.4702" opacity=".653"
                                     stroke="#000" stroke-width=".26458"/><path
        d="m60.664 110.84 5.6837 3.1769 0.47122-0.67266" opacity=".653" stroke="#000" stroke-width=".26458"/><path
        d="m61.442 119.95-0.11705 4.3936 5.321 3.1624 0.05878-4.5981z" opacity=".653" stroke="#000"
        stroke-width=".26458"/><path d="m61.354 134.09-0.09343 4.4785 5.3476 3.086 0.02914-4.572z" opacity=".653"
                                     stroke="#000" stroke-width=".26458"/><path d="m85.878 151.22-0.211 12.941"
                                                                                opacity=".653" stroke="#000"
                                                                                stroke-width=".26458"/><path
        d="m86.652 151.57-0.28134 12.801" opacity=".653" stroke="#000" stroke-width=".26458"/><path
        d="m113.45 167.17-0.28986 12.904" opacity=".653" stroke="#000" stroke-width=".26458"/><path
        d="m113.94 167.4-0.28134 12.958" opacity=".653" stroke="#000" stroke-width=".26458"/><path
        d="m131.26 164.52 0.17407 13.181" opacity=".653" stroke="#000" stroke-width=".26458"/><path
        d="m131.81 164.28 0.17407 13.111" opacity=".653" stroke="#000" stroke-width=".26458"/><path
        d="m136.92 161.24 0.0497 13.279" opacity=".653" stroke="#000" stroke-width=".26458"/><path
        d="m137.56 160.94 0.0497 13.279" opacity=".653" stroke="#000" stroke-width=".26458"/><path
        d="m131.25 121.95v13.13" opacity=".653" stroke="#000" stroke-width=".26458"/><path
        d="m131.99 121.55s-0.14921 12.782-0.0995 13.03" opacity=".653" stroke="#000" stroke-width=".26458"/><path
        d="m125.53 167.88 0.24867 13.055" opacity=".653" stroke="#000" stroke-width=".26458"/><path
        d="m126.05 167.6 0.17406 13.03" opacity=".653" stroke="#000" stroke-width=".26458"/><path
        d="m125.69 110.88 0.0352 13.188" opacity=".653" stroke="#000" stroke-width=".26458"/><path
        d="m126.04 110.64 0.0703 13.328" opacity=".653" stroke="#000" stroke-width=".26458"/><path
        d="m131.24 107.65v13.363" opacity=".653" stroke="#000" stroke-width=".26458"/><path
        d="m131.77 107.36 0.0352 13.258" opacity=".653" stroke="#000" stroke-width=".26458"/><path
        d="m137.01 104.31 0.0703 13.328" opacity=".653" stroke="#000" stroke-width=".26458"/><path
        d="m137.47 104.02 0.1055 13.223" opacity=".653" stroke="#000" stroke-width=".26458"/><path
        d="m147.75 167.92 7.4378-4.3783" opacity=".653" stroke="#000" stroke-width=".26458"/><path
        d="m91.399 72.198 0.79126-0.422 0.01758 10.972" opacity=".653" stroke="#000" stroke-width=".26458"/><path
        d="m86.576 84.687-0.01757 1.4067" opacity=".653" stroke="#000" stroke-width=".26458"/><path
        d="m98.05 60.327 4.4821-2.5934" opacity=".653" stroke="#000" stroke-width=".26458"/><path
        d="m98.222 61.788 4.0794-2.532 52.153 29.927" opacity=".653" stroke="#000" stroke-width=".26458"/><path
        d="m61.525 119.99-0.86159-0.36926-2e-6 5.3454 5.4333 3.2881 0.54509-0.7561" opacity=".653" stroke="#000"
        stroke-width=".26458"/><path d="m61.402 124.33-0.59784 0.56267" opacity=".653" stroke="#000"
                                     stroke-width=".26458"/><path
        d="m61.56 134.18-0.80884-0.5451-0.1055 5.4333 5.6443 3.2354 0.3165-0.6506" opacity=".653" stroke="#000"
        stroke-width=".26458"/><path d="m61.314 138.56-0.59784 0.45717" opacity=".653" stroke="#000"
                                     stroke-width=".26458"/><path d="m92.803 112.45v13.329" opacity=".653" stroke="#000"
                                                                  stroke-width=".26458"/><path
        d="m93.549 112.8-0.1492 13.329" opacity=".653" stroke="#000" stroke-width=".26458"/><path
        d="m92.853 126.72-0.02487 13.105" opacity=".653" stroke="#000" stroke-width=".26458"/><path
        d="m93.574 127.14-0.17407 12.98" opacity=".653" stroke="#000" stroke-width=".26458"/><path
        d="m92.853 141.02-0.04973 8.7531" opacity=".653" stroke="#000" stroke-width=".26458"/><path
        d="m142.88 115.14 0.0703 13.152-11.007 6.3652v-13.117z" opacity=".653" stroke-opacity="0"/><path
        d="m106.94 120.66 13.399 7.6664 10.937-6.2949 0.0352 12.977-11.007 6.4707-13.469-7.7719z" opacity=".653"
        stroke-opacity="0"/><path d="m93.58 112.99 12.801 7.3147-0.17584 13.152-12.801-7.4906z" opacity=".653"
                                  stroke-opacity="0"/><path d="m79.618 104.9 13.188 7.5961v13.258l-13.117-7.6312z"
                                                            opacity=".653" stroke-opacity="0"/><path
        d="m79.653 119.08 13.223 7.7016-0.07033 13.047-13.223-7.7016z" opacity=".653" stroke-opacity="0"/><path
        d="m93.615 127.13 12.695 7.3851 0.0352 13.047-12.941-7.4554z" opacity=".653" stroke-opacity="0"/><path
        d="m106.91 134.83 13.399 7.7016 10.867-6.4356 0.1055 13.293-11.007 6.3301-13.363-7.8071z" opacity=".653"
        stroke-opacity="0"/><path d="m131.84 135.74 10.867-6.3301 0.1055 13.399-10.796 6.0839z" opacity=".653"
                                  stroke-opacity="0"/><path
        d="m131.91 149.95 10.831-6.2949 0.1055 13.258-10.937 6.2246z" opacity=".653" stroke-opacity="0"/><path
        d="m106.94 148.97 13.258 7.6664 11.113-6.2949-0.0352 13.188-11.078 6.2246-11.324-6.3301-0.0352-4.2904-1.9694-1.266z"
        opacity=".653" stroke-opacity="0"/><path id="Office3.4"
                                                 d="m93.544 141.41 12.801 7.2444-0.1055 8.9324-12.836-7.3499z"
                                                 opacity=".653" stroke-opacity="0"/><path
        d="m79.618 133.39v13.152l10.585 5.9784 0.03517-3.0244 1.055-0.52751 1.5825 0.91434v-8.8973z" opacity=".653"
        stroke-opacity="0"/></g></svg>
